<svg width="615" height="183" viewBox="0 0 615 183" fill="none" xmlns="http://www.w3.org/2000/svg">
<rect x="51.3112" y="3.74224" width="86.7307" height="157.463" rx="11.3676" transform="rotate(18 51.3112 3.74224)" fill="#F2F2F2" stroke="#FF5722" stroke-width="4.21023" stroke-linejoin="bevel"/>
<g clip-path="url(#clip0_87_1199)">
<path d="M25.4029 144.191C25.846 143.666 26.4647 143.292 27.1431 143.172" stroke="#BF360C" stroke-width="0.493953" stroke-miterlimit="10" stroke-linecap="round"/>
<path d="M23.3978 141.222C24.0829 140.693 25.7094 140.011 26.894 140.255" stroke="#BF360C" stroke-width="0.493953" stroke-miterlimit="10" stroke-linecap="round"/>
<path d="M24.3513 142.804C24.9585 142.154 25.8047 141.753 26.69 141.678" stroke="#BF360C" stroke-width="0.493953" stroke-miterlimit="10" stroke-linecap="round"/>
<path d="M20.0175 143.621C20.1065 143.709 21.3233 145.047 21.7527 145.541C22.3251 146.14 22.9316 146.631 23.305 146.753C23.3322 146.762 23.3598 146.765 23.3869 146.773L23.3865 146.773L23.385 146.791C23.3331 147.31 23.389 147.836 23.5371 148.335C23.0865 148.284 22.6635 148.196 22.2863 148.073C21.0594 147.674 20.0805 147.239 19.4032 146.782C19.0009 146.594 18.3682 145.975 18.3682 145.975C18.0401 145.651 18.1772 144.723 19.0911 145.338C18.1931 143.654 19.1017 142.556 20.0175 143.621Z" fill="#DD2C00"/>
<path d="M24.1872 146.871C24.1881 146.871 24.189 146.871 24.1897 146.871C24.1884 146.871 24.1868 146.871 24.1855 146.871C25.5952 146.814 26.808 145.597 27.1363 144.578C27.4087 143.732 27.061 142.369 26.5946 141.513C26.4161 141.185 26.332 140.266 27.0912 140.3C28.2099 139.17 28.8047 139.559 30.122 137.864C31.2354 137.829 31.5753 140.536 31.5753 140.536C31.8325 146.414 27.6878 148.394 24.4007 148.385L24.4015 148.385C24.2126 147.913 24.1353 147.395 24.1872 146.871Z" fill="#FF5722"/>
<path d="M19.139 145.393C19.139 145.393 20.6975 147.056 23.3929 147.623C23.4201 147.864 23.4673 148.103 23.5364 148.335C23.0863 148.284 22.6633 148.195 22.2861 148.073C21.0592 147.674 20.0803 147.239 19.403 146.782C19.0008 146.594 18.368 145.975 18.368 145.975C18.0399 145.651 18.177 144.723 19.0909 145.338C19.0891 145.334 19.0876 145.331 19.0858 145.327L19.139 145.393Z" fill="#FF5722"/>
<path d="M23.4726 135.713L21.1688 132.843C21.1688 132.843 22.6182 133.621 23.5986 134.075C23.3304 133.811 22.2619 132.792 22.3157 132.809C29.007 135.809 29.6643 136.435 30.0963 137.284C30.7432 138.378 27.6149 141.012 26.5826 140.56C24.8033 138.762 22.3922 136.501 21.9486 135.235L23.4726 135.713Z" fill="#FF5722"/>
<path d="M23.3868 146.774C23.3872 146.774 23.3872 146.774 23.3868 146.774C23.5183 146.812 23.6484 146.837 23.7776 146.853C23.7879 146.854 23.7985 146.856 23.8084 146.856C23.9358 146.871 24.0616 146.876 24.1864 146.871C24.1876 146.871 24.1893 146.871 24.1906 146.871C24.1898 146.871 24.1889 146.871 24.188 146.871C24.1357 147.395 24.2129 147.914 24.402 148.385L24.4011 148.385C24.2683 148.386 24.1363 148.382 24.0066 148.375C23.8888 148.367 23.7363 148.354 23.5387 148.336C23.5379 148.335 23.5375 148.335 23.5366 148.335C23.3887 147.836 23.3327 147.31 23.3846 146.791L23.3868 146.774Z" fill="#FFCCBC"/>
<path d="M25.5381 146.459C25.7781 146.32 26.0012 146.154 26.2008 145.969L26.2002 145.97C26.4715 146.664 26.9004 147.291 27.4531 147.803C27.1762 147.916 26.8939 148.01 26.6097 148.089C26.162 147.608 25.7982 147.055 25.5381 146.459Z" fill="#FFCCBC"/>
<path d="M27.1374 144.578C27.1751 144.46 27.198 144.331 27.2133 144.197C27.7426 144.499 28.3094 144.752 28.9112 144.948C29.4334 145.117 29.9598 145.234 30.4853 145.306C30.3214 145.565 30.1431 145.806 29.9519 146.029C29.512 145.949 29.0778 145.85 28.6618 145.715C28.0754 145.525 27.5063 145.276 26.965 144.979C27.0353 144.844 27.0951 144.709 27.1374 144.578Z" fill="#FFCCBC"/>
<path d="M27.1434 143.068C27.0877 142.784 27.0087 142.499 26.9119 142.231C26.9125 142.231 26.9128 142.232 26.9129 142.233C28.5422 142.467 30.1613 142.188 31.5733 141.485C31.5606 141.805 31.5333 142.112 31.4929 142.406C30.1212 142.998 28.6337 143.224 27.1434 143.068Z" fill="#FFCCBC"/>
<path d="M26.6339 140.579C27.5492 140.876 29.8497 139.079 30.1449 137.868C30.4304 137.868 30.6632 138.05 30.8531 138.318C30.7432 138.614 30.5566 138.948 30.2593 139.319C29.4516 140.327 27.7525 141.624 26.5405 141.382C26.4606 141.145 26.4338 140.789 26.5733 140.55C26.5764 140.554 26.58 140.557 26.5829 140.56C26.5998 140.567 26.6167 140.573 26.6339 140.579Z" fill="#FFCCBC"/>
<path d="M24.1169 135.091C23.693 134.954 23.461 134.498 23.5987 134.075C23.7365 133.651 24.1917 133.419 24.6156 133.556C25.0395 133.694 25.2715 134.149 25.1337 134.573C24.996 134.997 24.5407 135.229 24.1169 135.091Z" fill="#3E2723"/>
</g>
<g clip-path="url(#clip1_87_1199)">
<path d="M70.1134 100.235C71.8859 98.1333 74.3607 96.6379 77.0744 96.1569" stroke="#BF360C" stroke-width="0.63079" stroke-miterlimit="10" stroke-linecap="round"/>
<path d="M62.0927 88.3568C64.8329 86.2434 71.3392 83.5123 76.0775 84.4885" stroke="#BF360C" stroke-width="0.63079" stroke-miterlimit="10" stroke-linecap="round"/>
<path d="M65.9056 94.6867C68.3342 92.0851 71.7193 90.4833 75.2602 90.1828" stroke="#BF360C" stroke-width="0.63079" stroke-miterlimit="10" stroke-linecap="round"/>
<path d="M48.5703 97.9534C48.9262 98.3049 53.7932 103.659 55.5109 105.632C57.8004 108.029 60.2264 109.995 61.72 110.48C61.829 110.516 61.9393 110.531 62.0478 110.563L62.0463 110.563L62.0402 110.634C61.8324 112.709 62.0561 114.815 62.6485 116.81C60.8462 116.606 59.1541 116.252 57.6452 115.761C52.7378 114.167 48.8221 112.424 46.1128 110.599C44.5039 109.847 41.9729 107.368 41.9729 107.368C40.6605 106.075 41.2091 102.36 44.8644 104.82C41.2726 98.0853 44.907 93.6948 48.5703 97.9534Z" fill="#DD2C00"/>
<path d="M65.2496 110.954C65.2532 110.953 65.2568 110.952 65.2598 110.953C65.2547 110.953 65.2481 110.953 65.243 110.953C70.8817 110.725 75.7329 105.859 77.0463 101.78C78.1359 98.3957 76.745 92.946 74.8795 89.5211C74.1652 88.2097 73.829 84.5332 76.8659 84.6715C81.3405 80.1501 83.7196 81.7071 88.989 74.9272C93.4427 74.7842 94.802 85.6118 94.802 85.6118C95.8308 109.124 79.2523 117.048 66.1036 117.011L66.1071 117.011C65.3512 115.122 65.042 113.05 65.2496 110.954Z" fill="#FF5722"/>
<path d="M45.0565 105.042C45.0565 105.042 51.2905 111.694 62.0721 113.96C62.181 114.925 62.3694 115.881 62.646 116.811C60.8458 116.606 59.1536 116.251 57.6447 115.761C52.7374 114.167 48.8216 112.424 46.1123 110.599C44.5034 109.847 41.9724 107.368 41.9724 107.368C40.66 106.075 41.2086 102.36 44.8639 104.82C44.8566 104.806 44.8509 104.792 44.8437 104.778L45.0565 105.042Z" fill="#FF5722"/>
<path d="M62.3918 66.3229L53.1766 54.8435C53.1766 54.8435 58.9744 57.9543 62.8958 59.7681C61.8231 58.7136 57.5492 54.6368 57.7641 54.7066C84.5293 66.7056 87.1586 69.2111 88.8865 72.6049C91.4743 76.9824 78.9611 87.5197 74.832 85.708C67.7145 78.5164 58.0702 69.4753 56.2959 64.4118L62.3918 66.3229Z" fill="#FF5722"/>
<path d="M62.0469 110.565C62.0484 110.565 62.0484 110.565 62.0469 110.565C62.5728 110.717 63.0931 110.818 63.6101 110.882C63.651 110.887 63.6934 110.893 63.7332 110.895C64.2425 110.952 64.746 110.975 65.245 110.954C65.2501 110.954 65.2567 110.954 65.2618 110.954C65.2588 110.953 65.2552 110.954 65.2516 110.954C65.0425 113.05 65.3512 115.124 66.1076 117.011L66.104 117.011C65.5727 117.012 65.0448 116.996 64.5261 116.969C64.0547 116.936 63.4449 116.885 62.6543 116.812C62.6512 116.811 62.6496 116.81 62.6461 116.811C62.0542 114.815 61.8305 112.709 62.0377 110.635L62.0469 110.565Z" fill="#FFCCBC"/>
<path d="M70.6523 109.305C71.6122 108.748 72.505 108.084 73.3033 107.345L73.3007 107.348C74.386 110.124 76.1016 112.631 78.3124 114.68C77.2047 115.133 76.0755 115.511 74.9386 115.824C73.1479 113.903 71.6927 111.691 70.6523 109.305Z" fill="#FFCCBC"/>
<path d="M77.0499 101.781C77.201 101.311 77.2925 100.794 77.3538 100.256C79.4709 101.465 81.7382 102.478 84.145 103.26C86.2342 103.939 88.3395 104.406 90.4415 104.695C89.7859 105.731 89.073 106.693 88.308 107.584C86.5483 107.266 84.8115 106.871 83.1475 106.33C80.8021 105.568 78.5258 104.572 76.3603 103.387C76.6415 102.845 76.8809 102.307 77.0499 101.781Z" fill="#FFCCBC"/>
<path d="M77.0749 95.7414C76.8519 94.6049 76.536 93.467 76.1486 92.3925C76.1512 92.395 76.1522 92.3971 76.1528 92.4006C82.6701 93.3388 89.1463 92.2203 94.7945 89.409C94.7434 90.689 94.6344 91.9178 94.4728 93.094C88.9861 95.4606 83.036 96.3647 77.0749 95.7414Z" fill="#FFCCBC"/>
<path d="M75.0356 85.7857C78.6965 86.9752 87.8986 79.7863 89.0796 74.9397C90.2214 74.9407 91.1528 75.6676 91.9123 76.7408C91.4726 77.9268 90.7263 79.2626 89.5371 80.7446C86.3063 84.7758 79.5098 89.9666 74.6618 88.999C74.3423 88.05 74.235 86.6253 74.7933 85.6696C74.8056 85.6838 74.82 85.697 74.8313 85.7091C74.8989 85.7362 74.9665 85.7632 75.0356 85.7857Z" fill="#FFCCBC"/>
<path d="M64.9696 63.836C63.274 63.2851 62.3462 61.464 62.8971 59.7685C63.448 58.073 65.269 57.1451 66.9646 57.696C68.6601 58.2469 69.588 60.068 69.037 61.7635C68.4861 63.459 66.6651 64.3869 64.9696 63.836Z" fill="#3E2723"/>
</g>
<g clip-path="url(#clip2_87_1199)">
<path d="M111.983 43.9431C112.427 43.4176 113.045 43.0437 113.724 42.9235" stroke="#BF360C" stroke-width="0.493953" stroke-miterlimit="10" stroke-linecap="round"/>
<path d="M109.978 40.9735C110.664 40.4451 112.29 39.7624 113.475 40.0064" stroke="#BF360C" stroke-width="0.493953" stroke-miterlimit="10" stroke-linecap="round"/>
<path d="M110.932 42.556C111.539 41.9057 112.385 41.5052 113.271 41.4301" stroke="#BF360C" stroke-width="0.493953" stroke-miterlimit="10" stroke-linecap="round"/>
<path d="M106.598 43.3727C106.687 43.4606 107.904 44.7991 108.333 45.2924C108.906 45.8916 109.512 46.3831 109.886 46.5045C109.913 46.5133 109.94 46.5172 109.968 46.5251L109.967 46.525L109.966 46.5428C109.914 47.0617 109.97 47.5882 110.118 48.0869C109.667 48.0359 109.244 47.9473 108.867 47.8247C107.64 47.4261 106.661 46.9905 105.984 46.5341C105.582 46.3461 104.949 45.7264 104.949 45.7264C104.621 45.403 104.758 44.4743 105.672 45.0895C104.774 43.4057 105.682 42.3081 106.598 43.3727Z" fill="#DD2C00"/>
<path d="M110.768 46.6227C110.769 46.6225 110.77 46.6224 110.77 46.6227C110.769 46.6227 110.767 46.6226 110.766 46.6226C112.176 46.5655 113.389 45.3491 113.717 44.3294C113.989 43.4832 113.642 42.1208 113.175 41.2646C112.997 40.9367 112.913 40.0176 113.672 40.0522C114.791 38.9218 115.385 39.3111 116.703 37.6161C117.816 37.5803 118.156 40.2872 118.156 40.2872C118.413 46.1654 114.269 48.1462 110.981 48.1371L110.982 48.1369C110.793 47.6649 110.716 47.1467 110.768 46.6227Z" fill="#FF5722"/>
<path d="M105.72 45.1449C105.72 45.1449 107.278 46.8078 109.974 47.3743C110.001 47.6157 110.048 47.8546 110.117 48.0871C109.667 48.0359 109.244 47.9472 108.867 47.8246C107.64 47.426 106.661 46.9904 105.984 46.534C105.581 46.346 104.949 45.7264 104.949 45.7264C104.621 45.403 104.758 44.4743 105.672 45.0894C105.67 45.0858 105.668 45.0824 105.667 45.0788L105.72 45.1449Z" fill="#FF5722"/>
<path d="M110.053 35.465L107.749 32.5951C107.749 32.5951 109.199 33.3728 110.179 33.8263C109.911 33.5627 108.843 32.5435 108.896 32.5609C115.588 35.5607 116.245 36.187 116.677 37.0355C117.324 38.1299 114.196 40.7642 113.163 40.3113C111.384 38.5134 108.973 36.2531 108.529 34.9872L110.053 35.465Z" fill="#FF5722"/>
<path d="M109.967 46.5256C109.968 46.5257 109.968 46.5257 109.967 46.5256C110.099 46.5636 110.229 46.5889 110.358 46.6051C110.368 46.6063 110.379 46.6076 110.389 46.6083C110.516 46.6225 110.642 46.6282 110.767 46.6229C110.768 46.6229 110.77 46.623 110.771 46.623C110.77 46.6227 110.77 46.6229 110.769 46.623C110.716 47.1469 110.794 47.6654 110.983 48.1371L110.982 48.1373C110.849 48.1374 110.717 48.1335 110.587 48.1266C110.469 48.1185 110.317 48.1058 110.119 48.0874C110.119 48.0872 110.118 48.0871 110.117 48.0872C109.969 47.5881 109.913 47.0617 109.965 46.5431L109.967 46.5256Z" fill="#FFCCBC"/>
<path d="M112.119 46.2105C112.359 46.0713 112.582 45.9054 112.781 45.7207L112.781 45.7214C113.052 46.4154 113.481 47.0422 114.034 47.5544C113.757 47.6677 113.475 47.7622 113.19 47.8404C112.743 47.3602 112.379 46.8071 112.119 46.2105Z" fill="#FFCCBC"/>
<path d="M113.718 44.3297C113.756 44.2121 113.779 44.083 113.794 43.9484C114.323 44.2506 114.89 44.5039 115.492 44.6994C116.014 44.8691 116.54 44.9858 117.066 45.0581C116.902 45.3171 116.724 45.5575 116.533 45.7805C116.093 45.7007 115.658 45.6021 115.242 45.4669C114.656 45.2764 114.087 45.0274 113.546 44.731C113.616 44.5956 113.676 44.4611 113.718 44.3297Z" fill="#FFCCBC"/>
<path d="M113.724 42.8196C113.668 42.5355 113.589 42.251 113.492 41.9824C113.493 41.983 113.493 41.9835 113.494 41.9844C115.123 42.219 116.742 41.9394 118.154 41.2365C118.141 41.5565 118.114 41.8637 118.074 42.1578C116.702 42.7494 115.214 42.9755 113.724 42.8196Z" fill="#FFCCBC"/>
<path d="M113.215 40.3308C114.13 40.6282 116.43 38.831 116.726 37.6193C117.011 37.6196 117.244 37.8013 117.434 38.0696C117.324 38.3661 117.137 38.7 116.84 39.0705C116.032 40.0783 114.333 41.376 113.121 41.1341C113.041 40.8969 113.014 40.5407 113.154 40.3018C113.157 40.3053 113.161 40.3086 113.164 40.3117C113.18 40.3184 113.197 40.3252 113.215 40.3308Z" fill="#FFCCBC"/>
<path d="M110.698 34.8432C110.274 34.7055 110.042 34.2502 110.179 33.8263C110.317 33.4025 110.772 33.1705 111.196 33.3082C111.62 33.4459 111.852 33.9012 111.714 34.3251C111.577 34.749 111.121 34.9809 110.698 34.8432Z" fill="#3E2723"/>
</g>
<rect x="43.976" y="2.40851" width="86.7307" height="157.463" rx="11.3676" transform="rotate(9 43.976 2.40851)" fill="#F2F2F2" stroke="#FF5722" stroke-width="4.21023" stroke-linejoin="bevel"/>
<g clip-path="url(#clip3_87_1199)">
<path d="M40.3577 145.181C40.7132 144.593 41.2658 144.127 41.9171 143.902" stroke="#BF360C" stroke-width="0.493953" stroke-miterlimit="10" stroke-linecap="round"/>
<path d="M37.9129 142.562C38.5068 141.933 40.0065 141.004 41.2147 141.06" stroke="#BF360C" stroke-width="0.493953" stroke-miterlimit="10" stroke-linecap="round"/>
<path d="M39.1022 143.976C39.6001 143.239 40.3733 142.711 41.2359 142.498" stroke="#BF360C" stroke-width="0.493953" stroke-miterlimit="10" stroke-linecap="round"/>
<path d="M34.9495 145.461C35.0511 145.533 36.4623 146.665 36.9636 147.085C37.6227 147.587 38.2986 147.978 38.6864 148.039C38.7147 148.044 38.7425 148.043 38.7705 148.047L38.7701 148.047L38.7714 148.065C38.8013 148.585 38.9389 149.097 39.1632 149.566C38.7102 149.586 38.2785 149.565 37.8867 149.503C36.6126 149.301 35.5776 149.024 34.8372 148.679C34.4106 148.556 33.6887 148.043 33.6887 148.043C33.314 147.775 33.3042 146.836 34.303 147.301C33.1527 145.779 33.8784 144.552 34.9495 145.461Z" fill="#DD2C00"/>
<path d="M39.5762 148.018C39.5771 148.018 39.5779 148.018 39.5787 148.018C39.5775 148.018 39.5758 148.018 39.5746 148.018C40.958 147.741 41.9655 146.35 42.1303 145.292C42.267 144.413 41.7104 143.122 41.1159 142.349C40.8882 142.054 40.6614 141.159 41.4167 141.074C42.3447 139.783 42.9931 140.074 44.0291 138.194C45.1232 137.985 45.8823 140.605 45.8823 140.605C47.0558 146.371 43.2721 148.975 40.024 149.481L40.0248 149.48C39.7643 149.044 39.6069 148.544 39.5762 148.018Z" fill="#FF5722"/>
<path d="M34.359 147.348C34.359 147.348 36.1585 148.747 38.9093 148.885C38.974 149.119 39.0579 149.348 39.1625 149.566C38.71 149.586 38.2783 149.565 37.8866 149.503C36.6125 149.301 35.5774 149.024 34.837 148.679C34.4104 148.556 33.6885 148.043 33.6885 148.043C33.3138 147.775 33.304 146.836 34.3028 147.301C34.3004 147.298 34.2985 147.295 34.2962 147.291L34.359 147.348Z" fill="#FF5722"/>
<path d="M37.125 137.11L34.4006 134.636C34.4006 134.636 35.9539 135.177 36.9931 135.471C36.687 135.253 35.4722 134.413 35.528 134.422C42.6062 136.338 43.3534 136.854 43.9128 137.625C44.723 138.604 42.0453 141.696 40.9549 141.41C38.9161 139.912 36.1812 138.057 35.545 136.876L37.125 137.11Z" fill="#FF5722"/>
<path d="M38.7705 148.047C38.7709 148.048 38.7709 148.048 38.7705 148.047C38.9063 148.064 39.0388 148.069 39.169 148.065C39.1792 148.064 39.1899 148.064 39.1999 148.063C39.3278 148.057 39.453 148.043 39.5754 148.018C39.5767 148.018 39.5783 148.018 39.5796 148.018C39.5788 148.018 39.5779 148.018 39.5771 148.018C39.6074 148.544 39.7647 149.044 40.0253 149.48L40.0244 149.481C39.8933 149.502 39.7623 149.518 39.6331 149.532C39.5155 149.542 39.3629 149.554 39.1648 149.566C39.164 149.566 39.1636 149.566 39.1628 149.566C38.9385 149.097 38.8009 148.585 38.771 148.065L38.7705 148.047Z" fill="#FFCCBC"/>
<path d="M40.846 147.4C41.0613 147.225 41.2557 147.026 41.424 146.812L41.4235 146.813C41.8 147.456 42.3217 148.008 42.9477 148.428C42.6919 148.583 42.4279 148.72 42.1594 148.842C41.6421 148.438 41.1963 147.948 40.846 147.4Z" fill="#FFCCBC"/>
<path d="M42.1314 145.292C42.1503 145.17 42.1527 145.039 42.1468 144.903C42.7168 145.119 43.3163 145.281 43.9412 145.38C44.4836 145.465 45.0217 145.498 45.552 145.488C45.4306 145.769 45.2922 146.034 45.1382 146.285C44.6912 146.275 44.2469 146.245 43.8149 146.177C43.206 146.08 42.6049 145.923 42.0239 145.715C42.0721 145.571 42.1102 145.428 42.1314 145.292Z" fill="#FFCCBC"/>
<path d="M41.9011 143.799C41.8016 143.528 41.6791 143.259 41.5415 143.009C41.5422 143.009 41.5425 143.01 41.5428 143.011C43.1888 142.987 44.7441 142.458 46.0288 141.543C46.0663 141.861 46.0874 142.169 46.0935 142.465C44.8313 143.264 43.3975 143.72 41.9011 143.799Z" fill="#FFCCBC"/>
<path d="M41.0086 141.421C41.9591 141.572 43.9501 139.437 44.0522 138.194C44.3342 138.149 44.5926 138.292 44.8221 138.528C44.7599 138.838 44.6279 139.197 44.3922 139.609C43.7521 140.731 42.2769 142.278 41.042 142.229C40.9259 142.007 40.8437 141.66 40.9442 141.402C40.9478 141.405 40.9519 141.408 40.9552 141.41C40.9729 141.414 40.9906 141.418 41.0086 141.421Z" fill="#FFCCBC"/>
<path d="M37.664 136.395C37.2238 136.325 36.9235 135.912 36.9932 135.471C37.0629 135.031 37.4763 134.731 37.9165 134.801C38.3567 134.87 38.6571 135.284 38.5873 135.724C38.5176 136.164 38.1042 136.464 37.664 136.395Z" fill="#3E2723"/>
</g>
<g clip-path="url(#clip4_87_1199)">
<path d="M77.6416 94.7723C79.0634 92.4189 81.2739 90.5547 83.8789 89.6552" stroke="#BF360C" stroke-width="0.63079" stroke-miterlimit="10" stroke-linecap="round"/>
<path d="M67.8615 84.2947C70.2373 81.7786 76.2362 78.0634 81.0689 78.2863" stroke="#BF360C" stroke-width="0.63079" stroke-miterlimit="10" stroke-linecap="round"/>
<path d="M72.6176 89.9502C74.6093 87.0007 77.7022 84.8891 81.1525 84.0384" stroke="#BF360C" stroke-width="0.63079" stroke-miterlimit="10" stroke-linecap="round"/>
<path d="M56.0068 95.8885C56.4132 96.1801 62.0579 100.707 64.0631 102.387C66.6994 104.396 69.4031 105.959 70.9542 106.204C71.0674 106.222 71.1788 106.22 71.2909 106.235L71.2893 106.234L71.2944 106.306C71.4139 108.388 71.9642 110.433 72.8614 112.311C71.0495 112.391 69.3227 112.306 67.7557 112.058C62.6593 111.25 58.5192 110.142 55.5577 108.763C53.851 108.272 50.9634 106.22 50.9634 106.22C49.4648 105.147 49.4255 101.392 53.4207 103.251C48.8195 97.1605 51.7223 92.2555 56.0068 95.8885Z" fill="#DD2C00"/>
<path d="M74.5144 106.119C74.5178 106.118 74.5213 106.117 74.5244 106.118C74.5194 106.119 74.5128 106.119 74.5077 106.12C80.0414 105.013 84.0717 99.4479 84.7308 95.2137C85.2775 91.7004 83.0512 86.5353 80.6729 83.4444C79.7622 82.2609 78.8551 78.6823 81.8762 78.3438C85.5884 73.178 88.1818 74.3437 92.3258 66.823C96.7023 65.985 99.7385 76.4666 99.7385 76.4666C104.433 99.5288 89.298 109.948 76.3054 111.969L76.3089 111.968C75.2668 110.221 74.6372 108.222 74.5144 106.119Z" fill="#FF5722"/>
<path d="M53.6451 103.44C53.6451 103.44 60.8429 109.034 71.8463 109.586C72.1048 110.522 72.4405 111.437 72.8591 112.312C71.049 112.391 69.3222 112.306 67.7552 112.058C62.6588 111.25 58.5187 110.142 55.5572 108.763C53.8505 108.272 50.9629 106.22 50.9629 106.22C49.4643 105.147 49.425 101.392 53.4202 103.251C53.4108 103.238 53.403 103.225 53.3936 103.212L53.6451 103.44Z" fill="#FF5722"/>
<path d="M64.71 62.4853L53.8125 52.5888C53.8125 52.5888 60.0256 54.7543 64.1824 55.9324C62.958 55.0586 58.0989 51.7006 58.3221 51.736C86.6349 59.4002 89.6237 61.4636 91.8612 64.5453C95.102 68.4641 84.3913 80.8291 80.0296 79.6857C71.8746 73.696 60.9347 66.275 58.3901 61.5514L64.71 62.4853Z" fill="#FF5722"/>
<path d="M71.2903 106.236C71.2919 106.236 71.2919 106.236 71.2903 106.236C71.8334 106.304 72.3632 106.323 72.884 106.306C72.9251 106.304 72.9678 106.303 73.0076 106.299C73.5195 106.276 74.0203 106.219 74.5098 106.12C74.5149 106.119 74.5215 106.119 74.5265 106.118C74.5234 106.118 74.5199 106.119 74.5165 106.12C74.6377 108.222 75.2671 110.223 76.3094 111.968L76.3059 111.969C75.7812 112.052 75.2574 112.12 74.7407 112.174C74.2701 112.215 73.6599 112.261 72.8674 112.312C72.8642 112.311 72.8626 112.311 72.8592 112.312C71.9623 110.433 71.4119 108.388 71.2922 106.307L71.2903 106.236Z" fill="#FFCCBC"/>
<path d="M79.5926 103.646C80.4536 102.945 81.2315 102.15 81.9044 101.296L81.9023 101.299C83.4085 103.871 85.4952 106.079 87.9993 107.757C86.9761 108.377 85.92 108.928 84.846 109.414C82.7768 107.797 80.9936 105.84 79.5926 103.646Z" fill="#FFCCBC"/>
<path d="M84.7346 95.2142C84.8102 94.7262 84.8198 94.2015 84.7961 93.6601C87.0762 94.5229 89.4741 95.1691 91.9737 95.565C94.1433 95.9086 96.2957 96.0404 98.4171 95.9972C97.9316 97.123 97.3779 98.1841 96.7619 99.1847C94.9739 99.145 93.1967 99.0269 91.4687 98.7532C89.0329 98.3674 86.6288 97.7399 84.3046 96.9077C84.4976 96.3287 84.6498 95.7597 84.7346 95.2142Z" fill="#FFCCBC"/>
<path d="M83.8144 89.2446C83.4163 88.157 82.9263 87.0826 82.3756 86.0819C82.3786 86.084 82.3799 86.0859 82.381 86.0893C88.9648 85.9964 95.1863 83.8786 100.325 80.2183C100.475 81.4905 100.56 82.7213 100.584 83.9083C95.535 87.104 89.7996 88.9278 83.8144 89.2446Z" fill="#FFCCBC"/>
<path d="M80.2427 79.7306C84.0447 80.3327 92.0089 71.7928 92.4172 66.8211C93.5451 66.6435 94.5787 67.2158 95.4967 68.157C95.248 69.3971 94.7199 70.8332 93.7771 72.483C91.2166 76.97 85.3159 83.1601 80.3762 82.9627C79.9122 82.0755 79.5833 80.685 79.9852 79.6538C79.9997 79.6659 80.0159 79.6767 80.029 79.6869C80.1 79.7031 80.171 79.7192 80.2427 79.7306Z" fill="#FFCCBC"/>
<path d="M66.867 59.6258C65.1061 59.3469 63.9048 57.6934 64.1837 55.9326C64.4626 54.1717 66.1161 52.9704 67.8769 53.2493C69.6377 53.5282 70.839 55.1817 70.5602 56.9425C70.2813 58.7033 68.6278 59.9046 66.867 59.6258Z" fill="#3E2723"/>
</g>
<g clip-path="url(#clip5_87_1199)">
<path d="M110.19 32.6232C110.546 32.0348 111.098 31.5688 111.749 31.3439" stroke="#BF360C" stroke-width="0.493953" stroke-miterlimit="10" stroke-linecap="round"/>
<path d="M107.745 30.0038C108.339 29.3748 109.839 28.446 111.047 28.5017" stroke="#BF360C" stroke-width="0.493953" stroke-miterlimit="10" stroke-linecap="round"/>
<path d="M108.935 31.4177C109.433 30.6803 110.206 30.1524 111.068 29.9398" stroke="#BF360C" stroke-width="0.493953" stroke-miterlimit="10" stroke-linecap="round"/>
<path d="M104.782 32.9023C104.884 32.9751 106.295 34.1068 106.796 34.5269C107.455 35.0292 108.131 35.4198 108.519 35.4812C108.547 35.4857 108.575 35.4852 108.603 35.4888L108.603 35.4887L108.604 35.5065C108.634 36.0272 108.771 36.5384 108.996 37.0078C108.543 37.028 108.111 37.0066 107.719 36.9445C106.445 36.7427 105.41 36.4656 104.67 36.1208C104.243 35.9981 103.521 35.485 103.521 35.485C103.146 35.2169 103.137 34.2782 104.135 34.7428C102.985 33.2202 103.711 31.994 104.782 32.9023Z" fill="#DD2C00"/>
<path d="M109.409 35.4599C109.41 35.4597 109.41 35.4594 109.411 35.4595C109.41 35.4597 109.408 35.4599 109.407 35.4601C110.79 35.1833 111.798 33.7921 111.963 32.7335C112.099 31.8552 111.543 30.5639 110.948 29.7912C110.721 29.4953 110.494 28.6007 111.249 28.516C112.177 27.2246 112.825 27.516 113.861 25.6358C114.956 25.4264 115.715 28.0468 115.715 28.0468C116.888 33.8123 113.105 36.4171 109.856 36.9223L109.857 36.922C109.597 36.4853 109.439 35.9857 109.409 35.4599Z" fill="#FF5722"/>
<path d="M104.191 34.7901C104.191 34.7901 105.991 36.1887 108.742 36.3266C108.806 36.5607 108.89 36.7893 108.995 37.0081C108.542 37.0279 108.111 37.0065 107.719 36.9445C106.445 36.7427 105.41 36.4656 104.669 36.1208C104.243 35.9981 103.521 35.485 103.521 35.485C103.146 35.2169 103.136 34.2782 104.135 34.7428C104.133 34.7395 104.131 34.7364 104.129 34.7331L104.191 34.7901Z" fill="#FF5722"/>
<path d="M106.957 24.5514L104.233 22.0773C104.233 22.0773 105.786 22.6187 106.825 22.9132C106.519 22.6947 105.305 21.8552 105.36 21.8641C112.439 23.7801 113.186 24.296 113.745 25.0664C114.555 26.0461 111.878 29.1374 110.787 28.8515C108.749 27.3541 106.014 25.4988 105.377 24.3179L106.957 24.5514Z" fill="#FF5722"/>
<path d="M108.603 35.4893C108.603 35.4893 108.603 35.4893 108.603 35.4893C108.739 35.5063 108.871 35.5109 109.001 35.5066C109.012 35.5062 109.022 35.5058 109.032 35.505C109.16 35.4991 109.285 35.485 109.408 35.4603C109.409 35.4601 109.411 35.4599 109.412 35.4597C109.411 35.4596 109.41 35.4599 109.409 35.4601C109.44 35.9858 109.597 36.4858 109.858 36.9222L109.857 36.9224C109.726 36.9433 109.595 36.9602 109.466 36.9736C109.348 36.984 109.195 36.9954 108.997 37.0081C108.996 37.008 108.996 37.0079 108.995 37.0082C108.771 36.5384 108.633 36.0272 108.603 35.5069L108.603 35.4893Z" fill="#FFCCBC"/>
<path d="M110.678 34.8415C110.894 34.6665 111.088 34.4677 111.256 34.2541L111.256 34.2548C111.632 34.8979 112.154 35.4499 112.78 35.8693C112.524 36.0245 112.26 36.162 111.992 36.2837C111.474 35.8795 111.029 35.3901 110.678 34.8415Z" fill="#FFCCBC"/>
<path d="M111.964 32.7337C111.983 32.6117 111.985 32.4805 111.979 32.3451C112.549 32.5609 113.149 32.7224 113.774 32.8214C114.316 32.9073 114.854 32.9402 115.384 32.9294C115.263 33.2109 115.125 33.4761 114.971 33.7263C114.524 33.7164 114.079 33.6868 113.647 33.6184C113.038 33.522 112.437 33.3651 111.856 33.157C111.905 33.0123 111.943 32.87 111.964 32.7337Z" fill="#FFCCBC"/>
<path d="M111.734 31.2413C111.634 30.9693 111.512 30.7007 111.374 30.4506C111.375 30.4511 111.375 30.4516 111.375 30.4524C113.021 30.4292 114.577 29.8997 115.861 28.9847C115.899 29.3027 115.92 29.6104 115.926 29.9072C114.664 30.7061 113.23 31.162 111.734 31.2413Z" fill="#FFCCBC"/>
<path d="M110.841 28.8628C111.791 29.0133 113.783 26.8783 113.885 25.6354C114.167 25.591 114.425 25.7341 114.654 25.9694C114.592 26.2794 114.46 26.6384 114.225 27.0509C113.584 28.1726 112.109 29.7202 110.874 29.6708C110.758 29.449 110.676 29.1014 110.777 28.8436C110.78 28.8466 110.784 28.8493 110.788 28.8519C110.805 28.8559 110.823 28.8599 110.841 28.8628Z" fill="#FFCCBC"/>
<path d="M107.496 23.8365C107.056 23.7668 106.756 23.3534 106.826 22.9132C106.895 22.473 107.309 22.1727 107.749 22.2424C108.189 22.3121 108.49 22.7255 108.42 23.1657C108.35 23.6059 107.937 23.9062 107.496 23.8365Z" fill="#3E2723"/>
</g>
<rect x="35.4955" y="2.10511" width="86.7307" height="157.463" rx="11.3676" fill="#F2F2F2" stroke="#FF5722" stroke-width="4.21023" stroke-linejoin="bevel"/>
<path d="M54.2564 143.686C54.5154 143.05 54.9883 142.503 55.5964 142.179" stroke="#BF360C" stroke-width="0.493953" stroke-miterlimit="10" stroke-linecap="round"/>
<path d="M51.4318 141.482C51.92 140.767 53.256 139.615 54.458 139.481" stroke="#BF360C" stroke-width="0.493953" stroke-miterlimit="10" stroke-linecap="round"/>
<path d="M52.8276 142.692C53.2041 141.886 53.8852 141.244 54.7039 140.899" stroke="#BF360C" stroke-width="0.493953" stroke-miterlimit="10" stroke-linecap="round"/>
<path d="M48.9584 144.808C49.0701 144.864 50.6409 145.761 51.2018 146.098C51.9313 146.491 52.66 146.771 53.0526 146.771C53.0813 146.771 53.1087 146.766 53.137 146.765H53.1366L53.1406 146.782C53.2516 147.292 53.4674 147.775 53.7624 148.204C53.3181 148.295 52.8884 148.341 52.4918 148.341C51.2018 148.341 50.1362 148.229 49.351 148.004C48.9103 147.95 48.1171 147.556 48.1171 147.556C47.7051 147.35 47.5485 146.424 48.6077 146.727C47.2334 145.403 47.7584 144.078 48.9584 144.808Z" fill="#DD2C00"/>
<path d="M53.9282 146.61C53.929 146.61 53.9298 146.61 53.9306 146.61C53.9294 146.61 53.9278 146.61 53.9266 146.611C55.2497 146.121 56.0272 144.589 56.0244 143.518C56.022 142.629 55.2702 141.441 54.5621 140.771C54.291 140.514 53.927 139.666 54.6598 139.464C55.3743 138.043 56.0603 138.23 56.7894 136.211C57.8373 135.833 58.9969 138.302 58.9969 138.302C61.058 143.813 57.7283 146.978 54.5992 147.985L54.6 147.984C54.2744 147.594 54.0408 147.125 53.9282 146.61Z" fill="#FF5722"/>
<path d="M48.6705 146.765C48.6705 146.765 50.6666 147.865 53.4051 147.571C53.5056 147.792 53.6242 148.004 53.7618 148.204C53.318 148.295 52.8882 148.341 52.4916 148.341C51.2016 148.341 50.136 148.229 49.3508 148.004C48.9102 147.95 48.1169 147.556 48.1169 147.556C47.7049 147.35 47.5484 146.424 48.6075 146.727C48.6047 146.724 48.6023 146.721 48.5995 146.719L48.6705 146.765Z" fill="#FF5722"/>
<path d="M49.8007 136.22L46.7228 134.202C46.7228 134.202 48.3416 134.494 49.4141 134.622C49.0776 134.454 47.7465 133.815 47.803 133.815C55.0938 134.6 55.9125 134.993 56.5855 135.666C57.5389 136.507 55.3778 139.979 54.2561 139.868C52.0082 138.708 49.0167 137.303 48.2036 136.236L49.8007 136.22Z" fill="#FF5722"/>
<path d="M53.137 146.765C53.1374 146.765 53.1374 146.765 53.137 146.765C53.2738 146.761 53.4054 146.745 53.5333 146.72C53.5433 146.718 53.5538 146.716 53.5635 146.714C53.689 146.688 53.8105 146.654 53.9275 146.611C53.9287 146.61 53.9303 146.61 53.9315 146.61C53.9307 146.61 53.9299 146.61 53.9291 146.61C54.0413 147.125 54.2749 147.594 54.6005 147.984L54.5997 147.985C54.4734 148.026 54.3467 148.063 54.2212 148.096C54.1066 148.125 53.9577 148.16 53.7641 148.204C53.7633 148.204 53.7629 148.204 53.762 148.204C53.4671 147.775 53.2512 147.292 53.1403 146.783L53.137 146.765Z" fill="#FFCCBC"/>
<path d="M55.0857 145.801C55.2709 145.594 55.4319 145.368 55.5646 145.13L55.5642 145.131C56.0367 145.707 56.6383 146.171 57.3222 146.487C57.0939 146.681 56.8546 146.858 56.6084 147.02C56.0343 146.702 55.5174 146.288 55.0857 145.801Z" fill="#FFCCBC"/>
<path d="M56.0255 143.518C56.0251 143.394 56.0069 143.265 55.9799 143.132C56.5766 143.256 57.194 143.321 57.8267 143.321C58.3758 143.321 58.9125 143.27 59.4346 143.176C59.3587 143.473 59.2635 143.757 59.1505 144.028C58.7075 144.088 58.2641 144.128 57.8267 144.128C57.2101 144.128 56.592 144.068 55.9855 143.953C56.0105 143.802 56.0259 143.656 56.0255 143.518Z" fill="#FFCCBC"/>
<path d="M55.5646 142.08C55.4237 141.827 55.2607 141.581 55.0856 141.355C55.0864 141.356 55.0868 141.356 55.0872 141.357C56.7093 141.076 58.1627 140.31 59.2884 139.205C59.3752 139.514 59.4442 139.814 59.4966 140.106C58.3749 141.093 57.0301 141.768 55.5646 142.08Z" fill="#FFCCBC"/>
<path d="M54.3109 139.87C55.2733 139.87 56.9058 137.45 56.8122 136.207C57.0838 136.119 57.3614 136.22 57.6248 136.416C57.6119 136.732 57.5377 137.107 57.3694 137.551C56.9127 138.76 55.6977 140.519 54.4703 140.663C54.321 140.462 54.1854 140.132 54.2444 139.862C54.2484 139.864 54.2528 139.866 54.2565 139.868C54.2746 139.869 54.2928 139.87 54.3109 139.87Z" fill="#FFCCBC"/>
<path d="M50.2213 135.429C49.7756 135.429 49.4143 135.068 49.4143 134.622C49.4143 134.176 49.7756 133.815 50.2213 133.815C50.667 133.815 51.0283 134.176 51.0283 134.622C51.0283 135.068 50.667 135.429 50.2213 135.429Z" fill="#3E2723"/>
<path d="M83.1955 88.0653C84.2316 85.5184 86.1232 83.3314 88.5555 82.0354" stroke="#BF360C" stroke-width="0.63079" stroke-miterlimit="10" stroke-linecap="round"/>
<path d="M71.8967 79.2467C73.8496 76.3899 79.1935 71.782 84.0016 71.2461" stroke="#BF360C" stroke-width="0.63079" stroke-miterlimit="10" stroke-linecap="round"/>
<path d="M77.4789 84.0885C78.9848 80.8638 81.7092 78.2943 84.984 76.9144" stroke="#BF360C" stroke-width="0.63079" stroke-miterlimit="10" stroke-linecap="round"/>
<path d="M62.0016 92.5522C62.4487 92.7766 68.7319 96.3644 70.9754 97.7105C73.8935 99.2825 76.8083 100.403 78.3787 100.403C78.4933 100.403 78.6031 100.383 78.7161 100.38H78.7144L78.7306 100.449C79.1744 102.488 80.0379 104.421 81.2177 106.136C79.4407 106.499 77.7218 106.684 76.1353 106.684C70.9754 106.684 66.7128 106.237 63.572 105.338C61.8095 105.12 58.6364 103.545 58.6364 103.545C56.9886 102.72 56.3623 99.0178 60.599 100.228C55.1018 94.9328 57.2016 89.6341 62.0016 92.5522Z" fill="#DD2C00"/>
<path d="M81.8818 99.7619C81.8851 99.7603 81.8883 99.7587 81.8915 99.7587C81.8867 99.7603 81.8802 99.7619 81.8754 99.7635C87.1676 97.8041 90.2778 91.6774 90.2665 87.3923C90.2568 83.8367 87.25 79.0835 84.4174 76.4027C83.3328 75.3762 81.877 71.9836 84.808 71.1766C87.6664 65.4937 90.4101 66.2394 93.3266 58.163C97.5181 56.6507 102.157 66.5283 102.157 66.5283C110.401 88.5721 97.0824 101.231 84.5659 105.259L84.5691 105.258C83.2666 103.695 82.3321 101.82 81.8818 99.7619Z" fill="#FF5722"/>
<path d="M60.8503 100.38C60.8503 100.38 68.8347 104.78 79.7889 103.603C80.1908 104.488 80.6653 105.338 81.2156 106.137C79.4403 106.499 77.7214 106.684 76.1348 106.684C70.9749 106.684 66.7123 106.237 63.5715 105.338C61.809 105.12 58.6359 103.545 58.6359 103.545C56.9881 102.72 56.3618 99.0178 60.5986 100.228C60.5873 100.217 60.5776 100.206 60.5663 100.194L60.8503 100.38Z" fill="#FF5722"/>
<path d="M65.3723 58.1988L53.0608 50.1289C53.0608 50.1289 59.5361 51.2958 63.8261 51.809C62.48 51.1376 57.1555 48.581 57.3814 48.581C86.5446 51.7219 89.8194 53.2923 92.5115 55.986C96.3253 59.3496 87.6808 73.2379 83.1939 72.7909C74.2024 68.1506 62.2363 62.5324 58.9841 58.265L65.3723 58.1988Z" fill="#FF5722"/>
<path d="M78.7157 100.382C78.7173 100.382 78.7173 100.382 78.7157 100.382C79.2628 100.364 79.789 100.299 80.3006 100.201C80.341 100.193 80.3829 100.185 80.4217 100.175C80.9236 100.072 81.4094 99.9378 81.8775 99.7635C81.8823 99.7619 81.8888 99.7603 81.8936 99.7587C81.8904 99.7587 81.8872 99.7603 81.8839 99.7619C82.3326 101.82 83.2671 103.697 84.5696 105.258L84.5664 105.259C84.0612 105.424 83.5544 105.572 83.0525 105.706C82.5941 105.821 81.9985 105.961 81.2238 106.136C81.2206 106.136 81.219 106.136 81.2157 106.137C80.0359 104.421 79.1724 102.488 78.7286 100.451L78.7157 100.382Z" fill="#FFCCBC"/>
<path d="M86.5105 96.5242C87.2514 95.6978 87.8953 94.7908 88.4263 93.8417L88.4247 93.845C90.3147 96.1497 92.7212 98.0042 95.4569 99.2696C94.5434 100.043 93.5863 100.751 92.6017 101.4C90.305 100.127 88.2375 98.4723 86.5105 96.5242Z" fill="#FFCCBC"/>
<path d="M90.2702 87.3922C90.2686 86.8983 90.196 86.3786 90.0879 85.8476C92.475 86.3431 94.9444 86.6062 97.4751 86.6062C99.6717 86.6062 101.818 86.3996 103.907 86.0251C103.603 87.213 103.222 88.3477 102.771 89.4323C100.998 89.6727 99.2247 89.8341 97.4751 89.8341C95.0089 89.8341 92.5363 89.5904 90.1105 89.1321C90.2105 88.53 90.2719 87.9442 90.2702 87.3922Z" fill="#FFCCBC"/>
<path d="M88.4275 81.64C87.8643 80.6281 87.2122 79.6435 86.5117 78.7413C86.515 78.7429 86.5166 78.7446 86.5182 78.7478C93.0064 77.6261 98.82 74.5611 103.323 70.142C103.67 71.3751 103.946 72.5775 104.156 73.746C99.669 77.6922 94.2895 80.3908 88.4275 81.64Z" fill="#FFCCBC"/>
<path d="M83.4115 72.8019C87.2609 72.8019 93.7911 63.1212 93.4166 58.1468C94.5028 57.795 95.6133 58.1985 96.6672 58.9845C96.6156 60.2483 96.3186 61.7493 95.6456 63.5263C93.8185 68.3585 88.9588 75.3955 84.049 75.9733C83.4519 75.1696 82.9096 73.8477 83.1452 72.7663C83.1614 72.776 83.1791 72.7841 83.1936 72.7922C83.2663 72.797 83.3389 72.8019 83.4115 72.8019Z" fill="#FFCCBC"/>
<path d="M67.0553 55.037C65.2726 55.037 63.8274 53.5918 63.8274 51.809C63.8274 50.0263 65.2726 48.581 67.0553 48.581C68.8381 48.581 70.2833 50.0263 70.2833 51.809C70.2833 53.5918 68.8381 55.037 67.0553 55.037Z" fill="#3E2723"/>
<path d="M105.621 21.5896C105.88 20.9529 106.353 20.4062 106.961 20.0822" stroke="#BF360C" stroke-width="0.493953" stroke-miterlimit="10" stroke-linecap="round"/>
<path d="M102.796 19.3849C103.285 18.6708 104.621 17.5188 105.823 17.3848" stroke="#BF360C" stroke-width="0.493953" stroke-miterlimit="10" stroke-linecap="round"/>
<path d="M104.192 20.5954C104.569 19.7892 105.25 19.1469 106.069 18.8019" stroke="#BF360C" stroke-width="0.493953" stroke-miterlimit="10" stroke-linecap="round"/>
<path d="M100.323 22.7113C100.435 22.7674 102.006 23.6644 102.567 24.0009C103.296 24.3939 104.025 24.6739 104.417 24.6739C104.446 24.6739 104.473 24.6691 104.502 24.6683H104.501L104.505 24.6856C104.616 25.1952 104.832 25.6786 105.127 26.1071C104.683 26.1979 104.253 26.2443 103.856 26.2443C102.567 26.2443 101.501 26.1325 100.716 25.9078C100.275 25.8533 99.4818 25.4595 99.4818 25.4595C99.0698 25.2533 98.9133 24.3277 99.9724 24.6303C98.5981 23.3065 99.1231 21.9818 100.323 22.7113Z" fill="#DD2C00"/>
<path d="M105.293 24.5137C105.294 24.5133 105.295 24.5129 105.295 24.5129C105.294 24.5133 105.292 24.5137 105.291 24.5141C106.614 24.0243 107.392 22.4926 107.389 21.4213C107.387 20.5324 106.635 19.3441 105.927 18.6739C105.656 18.4173 105.292 17.5691 106.024 17.3674C106.739 15.9467 107.425 16.1331 108.154 14.114C109.202 13.7359 110.362 16.2053 110.362 16.2053C112.423 21.7163 109.093 24.8809 105.964 25.888L105.965 25.8876C105.639 25.497 105.405 25.0282 105.293 24.5137Z" fill="#FF5722"/>
<path d="M100.035 24.6682C100.035 24.6682 102.031 25.7682 104.77 25.474C104.87 25.6951 104.989 25.9078 105.126 26.1075C104.683 26.1979 104.253 26.2443 103.856 26.2443C102.566 26.2443 101.501 26.1325 100.715 25.9078C100.275 25.8533 99.4816 25.4595 99.4816 25.4595C99.0696 25.2533 98.913 24.3277 99.9722 24.6303C99.9694 24.6275 99.967 24.6247 99.9642 24.6218L100.035 24.6682Z" fill="#FF5722"/>
<path d="M101.165 14.123L98.0875 12.1055C98.0875 12.1055 99.7063 12.3972 100.779 12.5255C100.442 12.3577 99.1112 11.7185 99.1677 11.7185C106.458 12.5037 107.277 12.8963 107.95 13.5698C108.904 14.4107 106.743 17.8827 105.621 17.771C103.373 16.6109 100.381 15.2063 99.5683 14.1395L101.165 14.123Z" fill="#FF5722"/>
<path d="M104.502 24.6687C104.502 24.6687 104.502 24.6687 104.502 24.6687C104.638 24.6643 104.77 24.6481 104.898 24.6235C104.908 24.6215 104.918 24.6195 104.928 24.6171C105.054 24.5912 105.175 24.5578 105.292 24.5142C105.293 24.5138 105.295 24.5134 105.296 24.513C105.295 24.513 105.295 24.5134 105.294 24.5138C105.406 25.0282 105.64 25.4975 105.965 25.8877L105.964 25.8881C105.838 25.9292 105.711 25.9664 105.586 25.9999C105.471 26.0285 105.322 26.0636 105.129 26.1072C105.128 26.1072 105.127 26.1072 105.127 26.1076C104.832 25.6787 104.616 25.1953 104.505 24.6861L104.502 24.6687Z" fill="#FFCCBC"/>
<path d="M106.45 23.7043C106.635 23.4977 106.796 23.2709 106.929 23.0337L106.929 23.0345C107.401 23.6107 108.003 24.0743 108.687 24.3906C108.458 24.5839 108.219 24.761 107.973 24.9233C107.399 24.6049 106.882 24.1913 106.45 23.7043Z" fill="#FFCCBC"/>
<path d="M107.39 21.4213C107.39 21.2978 107.372 21.1679 107.344 21.0352C107.941 21.159 108.559 21.2248 109.191 21.2248C109.74 21.2248 110.277 21.1732 110.799 21.0795C110.723 21.3765 110.628 21.6602 110.515 21.9313C110.072 21.9914 109.629 22.0318 109.191 22.0318C108.575 22.0318 107.957 21.9709 107.35 21.8563C107.375 21.7058 107.39 21.5593 107.39 21.4213Z" fill="#FFCCBC"/>
<path d="M106.929 19.9833C106.788 19.7303 106.625 19.4842 106.45 19.2586C106.451 19.259 106.451 19.2594 106.452 19.2602C108.074 18.9798 109.527 18.2135 110.653 17.1088C110.74 17.417 110.809 17.7176 110.861 18.0098C109.74 18.9963 108.395 19.671 106.929 19.9833Z" fill="#FFCCBC"/>
<path d="M105.676 17.7737C106.638 17.7737 108.27 15.3535 108.177 14.11C108.448 14.022 108.726 14.1229 108.99 14.3194C108.977 14.6353 108.902 15.0106 108.734 15.4548C108.277 16.6629 107.062 18.4221 105.835 18.5666C105.686 18.3656 105.55 18.0352 105.609 17.7648C105.613 17.7673 105.617 17.7693 105.621 17.7713C105.639 17.7725 105.657 17.7737 105.676 17.7737Z" fill="#FFCCBC"/>
<path d="M101.586 13.3325C101.14 13.3325 100.779 12.9712 100.779 12.5255C100.779 12.0798 101.14 11.7185 101.586 11.7185C102.032 11.7185 102.393 12.0798 102.393 12.5255C102.393 12.9712 102.032 13.3325 101.586 13.3325Z" fill="#3E2723"/>
<path d="M171.533 82.4277V146.704H158.329V72.0638H170.537L171.533 82.4277ZM206.162 98.4718V99.5181C206.162 103.438 205.697 107.075 204.767 110.43C203.87 113.752 202.542 116.658 200.781 119.15C199.021 121.608 196.828 123.534 194.204 124.93C191.613 126.292 188.624 126.972 185.235 126.972C181.914 126.972 179.024 126.341 176.566 125.079C174.107 123.784 172.031 121.957 170.337 119.598C168.643 117.24 167.281 114.499 166.252 111.377C165.255 108.221 164.508 104.783 164.009 101.063V97.7244C164.508 93.7715 165.255 90.184 166.252 86.9619C167.281 83.7066 168.643 80.8997 170.337 78.5412C172.031 76.1496 174.091 74.306 176.516 73.0105C178.974 71.715 181.847 71.0673 185.136 71.0673C188.557 71.0673 191.563 71.715 194.154 73.0105C196.778 74.306 198.987 76.1662 200.781 78.5911C202.575 81.0159 203.92 83.9059 204.817 87.2608C205.714 90.6158 206.162 94.3528 206.162 98.4718ZM192.958 99.5181V98.4718C192.958 96.0801 192.743 93.8711 192.311 91.8449C191.879 89.7854 191.215 87.9916 190.318 86.4636C189.421 84.9024 188.258 83.69 186.83 82.8263C185.401 81.9626 183.674 81.5308 181.648 81.5308C179.622 81.5308 177.878 81.863 176.416 82.5273C174.955 83.1917 173.759 84.1384 172.829 85.3674C171.899 86.5965 171.168 88.0581 170.636 89.7522C170.138 91.413 169.806 93.2566 169.64 95.2829V103.554C169.939 106.012 170.52 108.221 171.384 110.181C172.247 112.141 173.51 113.702 175.17 114.865C176.865 116.027 179.057 116.609 181.748 116.609C183.774 116.609 185.501 116.16 186.929 115.263C188.358 114.366 189.52 113.137 190.417 111.576C191.314 109.982 191.962 108.155 192.361 106.095C192.759 104.036 192.958 101.843 192.958 99.5181ZM213.437 99.568V98.5216C213.437 94.5687 214.002 90.9314 215.131 87.6096C216.261 84.2547 217.905 81.3481 220.064 78.89C222.223 76.4319 224.864 74.5219 227.986 73.16C231.109 71.7648 234.663 71.0673 238.649 71.0673C242.702 71.0673 246.289 71.7648 249.412 73.16C252.567 74.5219 255.225 76.4319 257.384 78.89C259.543 81.3481 261.187 84.2547 262.317 87.6096C263.446 90.9314 264.011 94.5687 264.011 98.5216V99.568C264.011 103.488 263.446 107.125 262.317 110.48C261.187 113.802 259.543 116.708 257.384 119.2C255.225 121.658 252.584 123.568 249.462 124.93C246.339 126.292 242.768 126.972 238.749 126.972C234.763 126.972 231.192 126.292 228.036 124.93C224.881 123.568 222.223 121.658 220.064 119.2C217.905 116.708 216.261 113.802 215.131 110.48C214.002 107.125 213.437 103.488 213.437 99.568ZM226.591 98.5216V99.568C226.591 101.926 226.824 104.135 227.289 106.195C227.754 108.254 228.468 110.065 229.431 111.626C230.395 113.187 231.64 114.416 233.168 115.313C234.73 116.177 236.59 116.609 238.749 116.609C240.875 116.609 242.702 116.177 244.23 115.313C245.758 114.416 247.003 113.187 247.967 111.626C248.963 110.065 249.694 108.254 250.159 106.195C250.624 104.135 250.857 101.926 250.857 99.568V98.5216C250.857 96.1964 250.624 94.0206 250.159 91.9944C249.694 89.9349 248.963 88.1245 247.967 86.5633C247.003 84.9688 245.741 83.7232 244.18 82.8263C242.652 81.8962 240.808 81.4312 238.649 81.4312C236.523 81.4312 234.696 81.8962 233.168 82.8263C231.64 83.7232 230.395 84.9688 229.431 86.5633C228.468 88.1245 227.754 89.9349 227.289 91.9944C226.824 94.0206 226.591 96.1964 226.591 98.5216ZM299.089 72.0638V81.5308H268.196V72.0638H299.089ZM276.468 58.81H289.671V110.43C289.671 112.025 289.887 113.254 290.319 114.117C290.751 114.981 291.399 115.562 292.262 115.861C293.126 116.16 294.156 116.31 295.352 116.31C296.215 116.31 297.013 116.26 297.743 116.16C298.474 116.061 299.089 115.961 299.587 115.861L299.637 125.727C298.541 126.092 297.295 126.391 295.9 126.624C294.538 126.856 292.993 126.972 291.266 126.972C288.31 126.972 285.719 126.474 283.493 125.478C281.267 124.448 279.54 122.804 278.311 120.545C277.082 118.253 276.468 115.23 276.468 111.476V58.81ZM321.81 72.0638V125.976H308.606V72.0638H321.81ZM307.709 57.9629C307.709 56.0031 308.373 54.3754 309.702 53.0799C311.064 51.7845 312.891 51.1367 315.183 51.1367C317.475 51.1367 319.285 51.7845 320.614 53.0799C321.976 54.3754 322.657 56.0031 322.657 57.9629C322.657 59.8895 321.976 61.5006 320.614 62.7961C319.285 64.0916 317.475 64.7393 315.183 64.7393C312.891 64.7393 311.064 64.0916 309.702 62.7961C308.373 61.5006 307.709 59.8895 307.709 57.9629Z" fill="#0069D9"/>
<path d="M347.52 82.4277V146.704H334.316V72.0638H346.523L347.52 82.4277ZM382.149 98.4718V99.5181C382.149 103.438 381.684 107.075 380.754 110.43C379.857 113.752 378.529 116.658 376.768 119.15C375.007 121.608 372.815 123.534 370.191 124.93C367.6 126.292 364.61 126.972 361.222 126.972C357.9 126.972 355.011 126.341 352.552 125.079C350.094 123.784 348.018 121.957 346.324 119.598C344.63 117.24 343.268 114.499 342.238 111.377C341.242 108.221 340.494 104.783 339.996 101.063V97.7244C340.494 93.7715 341.242 90.184 342.238 86.9619C343.268 83.7066 344.63 80.8997 346.324 78.5412C348.018 76.1496 350.078 74.306 352.503 73.0105C354.961 71.715 357.834 71.0673 361.123 71.0673C364.544 71.0673 367.55 71.715 370.141 73.0105C372.765 74.306 374.974 76.1662 376.768 78.5911C378.562 81.0159 379.907 83.9059 380.804 87.2608C381.701 90.6158 382.149 94.3528 382.149 98.4718ZM368.945 99.5181V98.4718C368.945 96.0801 368.729 93.8711 368.298 91.8449C367.866 89.7854 367.201 87.9916 366.304 86.4636C365.408 84.9024 364.245 83.69 362.817 82.8263C361.388 81.9626 359.661 81.5308 357.635 81.5308C355.608 81.5308 353.865 81.863 352.403 82.5273C350.941 83.1917 349.746 84.1384 348.815 85.3674C347.885 86.5965 347.155 88.0581 346.623 89.7522C346.125 91.413 345.793 93.2566 345.627 95.2829V103.554C345.925 106.012 346.507 108.221 347.37 110.181C348.234 112.141 349.496 113.702 351.157 114.865C352.851 116.027 355.044 116.609 357.734 116.609C359.761 116.609 361.488 116.16 362.916 115.263C364.345 114.366 365.507 113.137 366.404 111.576C367.301 109.982 367.949 108.155 368.347 106.095C368.746 104.036 368.945 101.843 368.945 99.5181ZM389.424 99.568V98.5216C389.424 94.5687 389.989 90.9314 391.118 87.6096C392.247 84.2547 393.892 81.3481 396.051 78.89C398.21 76.4319 400.851 74.5219 403.973 73.16C407.096 71.7648 410.65 71.0673 414.636 71.0673C418.689 71.0673 422.276 71.7648 425.399 73.16C428.554 74.5219 431.212 76.4319 433.371 78.89C435.53 81.3481 437.174 84.2547 438.304 87.6096C439.433 90.9314 439.998 94.5687 439.998 98.5216V99.568C439.998 103.488 439.433 107.125 438.304 110.48C437.174 113.802 435.53 116.708 433.371 119.2C431.212 121.658 428.571 123.568 425.448 124.93C422.326 126.292 418.755 126.972 414.736 126.972C410.75 126.972 407.179 126.292 404.023 124.93C400.867 123.568 398.21 121.658 396.051 119.2C393.892 116.708 392.247 113.802 391.118 110.48C389.989 107.125 389.424 103.488 389.424 99.568ZM402.578 98.5216V99.568C402.578 101.926 402.811 104.135 403.276 106.195C403.741 108.254 404.455 110.065 405.418 111.626C406.382 113.187 407.627 114.416 409.155 115.313C410.716 116.177 412.577 116.609 414.736 116.609C416.862 116.609 418.689 116.177 420.217 115.313C421.745 114.416 422.99 113.187 423.954 111.626C424.95 110.065 425.681 108.254 426.146 106.195C426.611 104.135 426.844 101.926 426.844 99.568V98.5216C426.844 96.1964 426.611 94.0206 426.146 91.9944C425.681 89.9349 424.95 88.1245 423.954 86.5633C422.99 84.9688 421.728 83.7232 420.167 82.8263C418.639 81.8962 416.795 81.4312 414.636 81.4312C412.51 81.4312 410.683 81.8962 409.155 82.8263C407.627 83.7232 406.382 84.9688 405.418 86.5633C404.455 88.1245 403.741 89.9349 403.276 91.9944C402.811 94.0206 402.578 96.1964 402.578 98.5216ZM463.516 72.0638V125.976H450.312V72.0638H463.516ZM449.415 57.9629C449.415 56.0031 450.079 54.3754 451.408 53.0799C452.77 51.7845 454.597 51.1367 456.889 51.1367C459.181 51.1367 460.991 51.7845 462.32 53.0799C463.682 54.3754 464.363 56.0031 464.363 57.9629C464.363 59.8895 463.682 61.5006 462.32 62.7961C460.991 64.0916 459.181 64.7393 456.889 64.7393C454.597 64.7393 452.77 64.0916 451.408 62.7961C450.079 61.5006 449.415 59.8895 449.415 57.9629ZM488.977 83.5737V125.976H475.823V72.0638H488.18L488.977 83.5737ZM486.884 97.0766H482.998C483.031 93.157 483.563 89.6027 484.592 86.4138C485.622 83.2249 487.067 80.4845 488.927 78.1924C490.821 75.9004 493.063 74.1399 495.654 72.9108C498.245 71.6818 501.135 71.0673 504.324 71.0673C506.915 71.0673 509.256 71.4327 511.349 72.1634C513.442 72.8942 515.236 74.0569 516.73 75.6513C518.258 77.2457 519.421 79.3385 520.218 81.9294C521.049 84.4872 521.464 87.6428 521.464 91.3964V125.976H508.21V91.2968C508.21 88.8387 507.845 86.8955 507.114 85.4671C506.416 84.0387 505.387 83.0256 504.025 82.4277C502.696 81.8298 501.052 81.5308 499.092 81.5308C497.066 81.5308 495.288 81.946 493.76 82.7765C492.266 83.5737 491.003 84.6865 489.974 86.1148C488.977 87.5432 488.213 89.1875 487.682 91.0477C487.15 92.9078 486.884 94.9175 486.884 97.0766ZM558.585 72.0638V81.5308H527.692V72.0638H558.585ZM535.963 58.81H549.167V110.43C549.167 112.025 549.383 113.254 549.815 114.117C550.247 114.981 550.895 115.562 551.758 115.861C552.622 116.16 553.652 116.31 554.848 116.31C555.711 116.31 556.508 116.26 557.239 116.16C557.97 116.061 558.585 115.961 559.083 115.861L559.133 125.727C558.036 126.092 556.791 126.391 555.396 126.624C554.034 126.856 552.489 126.972 550.762 126.972C547.805 126.972 545.214 126.474 542.989 125.478C540.763 124.448 539.036 122.804 537.807 120.545C536.578 118.253 535.963 115.23 535.963 111.476V58.81ZM597.001 111.227C597.001 110.098 596.702 109.085 596.104 108.188C595.506 107.291 594.376 106.477 592.716 105.746C591.088 104.982 588.696 104.268 585.541 103.604C582.75 103.006 580.176 102.259 577.818 101.362C575.459 100.465 573.433 99.3853 571.739 98.123C570.045 96.8275 568.716 95.3161 567.753 93.5888C566.822 91.8283 566.357 89.802 566.357 87.51C566.357 85.2844 566.839 83.1917 567.802 81.2319C568.766 79.2388 570.161 77.4949 571.988 76.0001C573.815 74.4721 576.04 73.2762 578.665 72.4126C581.289 71.5157 584.245 71.0673 587.534 71.0673C592.118 71.0673 596.054 71.8147 599.343 73.3095C602.664 74.8042 605.205 76.8637 606.966 79.4879C608.726 82.0789 609.607 85.002 609.607 88.2574H596.453C596.453 86.829 596.12 85.5335 595.456 84.3709C594.825 83.2083 593.845 82.2782 592.516 81.5806C591.188 80.8499 589.51 80.4845 587.484 80.4845C585.657 80.4845 584.112 80.7834 582.85 81.3813C581.621 81.9792 580.691 82.7599 580.06 83.7232C579.429 84.6865 579.113 85.7494 579.113 86.9121C579.113 87.7757 579.279 88.5563 579.611 89.2539C579.977 89.9183 580.558 90.5328 581.355 91.0975C582.152 91.6622 583.232 92.1771 584.594 92.6421C585.989 93.1071 587.7 93.5556 589.726 93.9874C593.745 94.7846 597.25 95.8476 600.239 97.1763C603.262 98.4718 605.621 100.199 607.315 102.358C609.009 104.517 609.856 107.274 609.856 110.629C609.856 113.021 609.341 115.213 608.311 117.207C607.282 119.166 605.787 120.877 603.827 122.339C601.867 123.8 599.525 124.946 596.801 125.777C594.078 126.574 591.005 126.972 587.583 126.972C582.634 126.972 578.449 126.092 575.027 124.332C571.606 122.538 569.015 120.279 567.254 117.555C565.494 114.798 564.614 111.942 564.614 108.985H577.22C577.319 111.078 577.884 112.755 578.914 114.018C579.943 115.28 581.239 116.193 582.8 116.758C584.395 117.29 586.072 117.555 587.833 117.555C589.826 117.555 591.503 117.29 592.865 116.758C594.227 116.193 595.257 115.446 595.954 114.516C596.652 113.553 597.001 112.456 597.001 111.227Z" fill="#FF5722"/>
<defs>
<clipPath id="clip0_87_1199">
<rect width="19.3671" height="19.3671" fill="white" transform="translate(18.7172 129.943) rotate(18)"/>
</clipPath>
<clipPath id="clip1_87_1199">
<rect width="77.4682" height="77.4682" fill="white" transform="translate(43.3707 43.2417) rotate(18)"/>
</clipPath>
<clipPath id="clip2_87_1199">
<rect width="19.3671" height="19.3671" fill="white" transform="translate(105.298 29.6947) rotate(18)"/>
</clipPath>
<clipPath id="clip3_87_1199">
<rect width="19.3671" height="19.3671" fill="white" transform="translate(31.5255 132.154) rotate(9)"/>
</clipPath>
<clipPath id="clip4_87_1199">
<rect width="77.4682" height="77.4682" fill="white" transform="translate(42.3123 42.6638) rotate(9)"/>
</clipPath>
<clipPath id="clip5_87_1199">
<rect width="19.3671" height="19.3671" fill="white" transform="translate(101.358 19.5961) rotate(9)"/>
</clipPath>
</defs>
</svg>
